<?xml version="1.0" standalone="no"?><!DOCTYPE svg PUBLIC "-//W3C//DTD SVG 1.1//EN" "http://www.w3.org/Graphics/SVG/1.1/DTD/svg11.dtd"><svg t="1635150722160" class="icon" viewBox="0 0 1024 1024" version="1.1" xmlns="http://www.w3.org/2000/svg" p-id="675" width="32" height="32" xmlns:xlink="http://www.w3.org/1999/xlink"><defs><style type="text/css"></style></defs><path d="M864 864H160a96 96 0 0 1-96-96V256a96 96 0 0 1 96-96h704a96 96 0 0 1 96 96v512a96 96 0 0 1-96 96zM160 224a32 32 0 0 0-32 32v512a32 32 0 0 0 32 32h704a32 32 0 0 0 32-32V256a32 32 0 0 0-32-32z" fill="#84ade4" p-id="676"></path><path d="M512 590.24a96 96 0 0 1-60-21.28l-280-224a32 32 0 0 1 40-49.92l280 224a32 32 0 0 0 40 0l280-224a32 32 0 0 1 40 49.92l-280 224A96 96 0 0 1 512 590.24z" fill="#84ade4" p-id="677"></path></svg>